<svg width="19" height="13" viewBox="0 0 19 13" fill="none" xmlns="http://www.w3.org/2000/svg">
<path d="M9.03973 12.0608V0.242122H7.44635V5.24646H1.59338V0.243389H0V12.0608H1.59338V6.64985H7.44508V12.0608H9.03973ZM13.6312 6.64985H14.9206C16.367 6.64985 17.3714 7.49848 17.3892 8.77014C17.4056 10.0431 16.4012 10.9702 14.8433 10.9614C13.4754 10.9525 12.4963 10.2166 12.3924 9.28945H10.9029C10.9903 10.9702 12.4532 12.3116 14.8078 12.3116C17.2587 12.3116 19.0421 10.8486 18.999 8.77901C18.9648 6.86644 17.4145 6.04315 16.4189 5.93043V5.8443C17.3106 5.6885 18.6532 4.69169 18.6013 3.02104C18.557 1.30733 17.1118 -0.0187974 14.8598 0.000201599C12.4874 0.0078012 11.2411 1.47199 11.1892 2.98685H12.704C12.7825 2.11289 13.6046 1.34153 14.8522 1.34153C16.1162 1.34153 16.999 2.12936 16.999 3.2731C17.0079 4.4409 16.0896 5.28953 14.8522 5.28953H13.6312V6.64985Z" fill="#979FA5"/>
</svg>
