<svg width="27" height="27" viewBox="0 0 27 27" fill="none" xmlns="http://www.w3.org/2000/svg">
<path d="M13.5 0C10.8299 0 8.21985 0.791759 5.99979 2.27515C3.77973 3.75855 2.04941 5.86695 1.02763 8.33375C0.00584932 10.8005 -0.261495 13.5149 0.259404 16.1337C0.780303 18.7524 2.06605 21.1579 3.95405 23.0459C5.84206 24.9339 8.24752 26.2196 10.8663 26.7405C13.485 27.2614 16.1994 26.9941 18.6662 25.9723C21.133 24.9505 23.2414 23.2202 24.7248 21.0001C26.2082 18.7801 26.9999 16.17 26.9999 13.5C26.9999 11.7271 26.6507 9.97164 25.9723 8.33375C25.2939 6.69586 24.2995 5.20763 23.0459 3.95405C21.7923 2.70046 20.3041 1.70606 18.6662 1.02762C17.0283 0.349187 15.2728 0 13.5 0ZM13.5 24.2999C11.3639 24.2999 9.27587 23.6665 7.49982 22.4798C5.72378 21.2931 4.33952 19.6064 3.5221 17.6329C2.70467 15.6595 2.4908 13.488 2.90752 11.393C3.32424 9.298 4.35283 7.37363 5.86323 5.86323C7.37364 4.35283 9.29801 3.32423 11.393 2.90751C13.488 2.49079 15.6595 2.70467 17.6329 3.52209C19.6064 4.33951 21.2931 5.72377 22.4798 7.49982C23.6665 9.27586 24.2999 11.3639 24.2999 13.5C24.2999 16.3643 23.1621 19.1113 21.1367 21.1367C19.1113 23.1621 16.3643 24.2999 13.5 24.2999ZM18.8999 12.15H8.09998C7.74194 12.15 7.39856 12.2922 7.14539 12.5454C6.89222 12.7985 6.74999 13.1419 6.74999 13.5C6.74999 13.858 6.89222 14.2014 7.14539 14.4545C7.39856 14.7077 7.74194 14.85 8.09998 14.85H18.8999C19.258 14.85 19.6014 14.7077 19.8545 14.4545C20.1077 14.2014 20.2499 13.858 20.2499 13.5C20.2499 13.1419 20.1077 12.7985 19.8545 12.5454C19.6014 12.2922 19.258 12.15 18.8999 12.15Z" fill="black"/>
</svg>
