<svg width="11" height="11" viewBox="0 0 11 11" fill="none" xmlns="http://www.w3.org/2000/svg">
<path d="M10.3125 4.8125H6.18751V0.687501C6.18751 0.505164 6.11507 0.330296 5.98614 0.201364C5.85721 0.072433 5.68234 0 5.5 0C5.31767 0 5.1428 0.072433 5.01387 0.201364C4.88494 0.330296 4.8125 0.505164 4.8125 0.687501V4.8125H0.687501C0.505164 4.8125 0.330296 4.88494 0.201364 5.01387C0.072433 5.1428 0 5.31767 0 5.5C0 5.68234 0.072433 5.85721 0.201364 5.98614C0.330296 6.11507 0.505164 6.18751 0.687501 6.18751H4.8125V10.3125C4.8125 10.4948 4.88494 10.6697 5.01387 10.7986C5.1428 10.9276 5.31767 11 5.5 11C5.68234 11 5.85721 10.9276 5.98614 10.7986C6.11507 10.6697 6.18751 10.4948 6.18751 10.3125V6.18751H10.3125C10.4948 6.18751 10.6697 6.11507 10.7986 5.98614C10.9276 5.85721 11 5.68234 11 5.5C11 5.31767 10.9276 5.1428 10.7986 5.01387C10.6697 4.88494 10.4948 4.8125 10.3125 4.8125Z" fill="#75839D"/>
</svg>
