<svg width="22" height="27" viewBox="0 0 22 27" fill="none" xmlns="http://www.w3.org/2000/svg">
<path d="M18.9464 15.1301V10.8265C18.9445 8.90905 18.264 7.05412 17.0255 5.59024C15.7871 4.12637 14.0705 3.14801 12.1798 2.82843V1.35332C12.1798 0.994395 12.0373 0.650173 11.7835 0.396377C11.5297 0.142581 11.1855 0 10.8265 0C10.4676 0 10.1234 0.142581 9.86959 0.396377C9.6158 0.650173 9.47321 0.994395 9.47321 1.35332V2.82843C7.58255 3.14801 5.86598 4.12637 4.62751 5.59024C3.38904 7.05412 2.70858 8.90905 2.70663 10.8265V15.1301C1.91691 15.4093 1.23287 15.9259 0.748301 16.6092C0.263732 17.2924 0.00235411 18.1088 0 18.9464V21.6531C0 22.012 0.142581 22.3562 0.396377 22.61C0.650173 22.8638 0.994395 23.0064 1.35332 23.0064H5.60273C5.91438 24.1531 6.59471 25.1655 7.53878 25.8872C8.48285 26.609 9.63818 27 10.8265 27C12.0149 27 13.1702 26.609 14.1143 25.8872C15.0583 25.1655 15.7387 24.1531 16.0503 23.0064H20.2997C20.6587 23.0064 21.0029 22.8638 21.2567 22.61C21.5105 22.3562 21.6531 22.012 21.6531 21.6531V18.9464C21.6507 18.1088 21.3893 17.2924 20.9048 16.6092C20.4202 15.9259 19.7362 15.4093 18.9464 15.1301ZM5.41327 10.8265C5.41327 9.39084 5.98359 8.01396 6.99877 6.99877C8.01396 5.98359 9.39084 5.41327 10.8265 5.41327C12.2622 5.41327 13.6391 5.98359 14.6543 6.99877C15.6695 8.01396 16.2398 9.39084 16.2398 10.8265V14.8865H5.41327V10.8265ZM10.8265 24.3597C10.3542 24.3568 9.89081 24.2304 9.48246 23.993C9.07411 23.7556 8.73499 23.4155 8.49883 23.0064H13.1542C12.9181 23.4155 12.579 23.7556 12.1706 23.993C11.7622 24.2304 11.2989 24.3568 10.8265 24.3597ZM18.9464 20.2997H2.70663V18.9464C2.70663 18.5875 2.84921 18.2433 3.10301 17.9895C3.35681 17.7357 3.70103 17.5931 4.05995 17.5931H17.5931C17.952 17.5931 18.2963 17.7357 18.5501 17.9895C18.8038 18.2433 18.9464 18.5875 18.9464 18.9464V20.2997Z" fill="#424C5D"/>
</svg>
