<svg width="20" height="18" viewBox="0 0 20 18" fill="none" xmlns="http://www.w3.org/2000/svg">
<path d="M18.85 8.66369L18.5468 8.9973L18.8473 9.33333C19.2573 9.79169 19.4839 10.3851 19.4839 11C19.4839 11.6149 19.2573 12.2083 18.8473 12.6667L18.5492 13L18.8473 13.3333C19.1683 13.6922 19.3789 14.1361 19.4536 14.6118C19.5284 15.0874 19.4643 15.5745 19.2689 16.0145C19.0735 16.4546 18.7552 16.8289 18.3522 17.0924C17.9497 17.3556 17.4797 17.4972 16.9987 17.5H3C2.33696 17.5 1.70107 17.2366 1.23223 16.7678C0.763743 16.2993 0.500394 15.664 0.5 15.0015C0.50404 14.3853 0.735501 13.7923 1.14999 13.3363L1.45324 13.0027L1.15268 12.6667C0.742716 12.2083 0.516068 11.6149 0.516068 11C0.516068 10.3851 0.742716 9.79169 1.15268 9.33333L1.45082 9L1.15268 8.66667C0.742716 8.20831 0.516068 7.61494 0.516068 7C0.516068 6.38506 0.742716 5.79169 1.15268 5.33333L1.45324 4.9973L1.14999 4.66369C0.735501 4.20769 0.50404 3.61469 0.5 2.99851C0.500395 2.33601 0.763743 1.70072 1.23223 1.23223C1.70107 0.763392 2.33696 0.5 3 0.5H8.99926C9.39839 0.501227 9.79143 0.598 10.1455 0.78223C10.4998 0.966562 10.8047 1.23308 11.0348 1.55948C11.265 1.88588 11.4135 2.26266 11.4681 2.65827C11.5227 3.05388 11.4817 3.45681 11.3486 3.83333L11.1129 4.5H11.82H17C17.663 4.5 18.2989 4.76339 18.7678 5.23223C19.2363 5.70075 19.4996 6.33606 19.5 6.9986C19.4959 7.61475 19.2645 8.20771 18.85 8.66369ZM11.3513 15.8258L11.1007 16.5H11.82H16.9964C17.193 16.5026 17.388 16.4646 17.5692 16.3884C17.7479 16.3133 17.9095 16.2027 18.044 16.0632C18.1842 15.9273 18.2966 15.7653 18.3748 15.5863C18.4546 15.4034 18.4972 15.2065 18.5 15.007H18.5V15C18.5 14.6022 18.342 14.2206 18.0607 13.9393C17.7794 13.658 17.3978 13.5 17 13.5H11.82H11.1007L11.3513 14.1742C11.5494 14.7069 11.5494 15.2931 11.3513 15.8258ZM11.3513 11.8258L11.1007 12.5H11.82H16.9963C17.1929 12.5026 17.3879 12.4646 17.5692 12.3884C17.7479 12.3133 17.9095 12.2027 18.044 12.0632C18.1842 11.9273 18.2966 11.7653 18.3748 11.5863C18.4546 11.4034 18.4972 11.2065 18.5 11.007H18.5V11C18.5 10.6022 18.342 10.2206 18.0607 9.93934C17.7794 9.65804 17.3978 9.5 17 9.5H11.82H11.1007L11.3513 10.1742C11.5494 10.7069 11.5494 11.2931 11.3513 11.8258ZM11.3513 7.82578L11.1007 8.5H11.82H16.9963C17.1929 8.50258 17.3879 8.4646 17.5692 8.38842C17.7479 8.31331 17.9095 8.20265 18.044 8.06323C18.1842 7.92733 18.2966 7.76533 18.3748 7.58631C18.4546 7.40344 18.4972 7.20647 18.5 7.00695L18.5 7.00695V7C18.5 6.60218 18.342 6.22064 18.0607 5.93934C17.7794 5.65804 17.3978 5.5 17 5.5H11.82H11.1007L11.3513 6.17422C11.5494 6.70693 11.5494 7.29307 11.3513 7.82578ZM3 16.5H9C9.39782 16.5 9.77936 16.342 10.0607 16.0607C10.342 15.7794 10.5 15.3978 10.5 15C10.5 14.6022 10.342 14.2206 10.0607 13.9393C9.77936 13.658 9.39782 13.5 9 13.5H3C2.60218 13.5 2.22065 13.658 1.93934 13.9393C1.65804 14.2206 1.5 14.6022 1.5 15C1.5 15.3978 1.65804 15.7794 1.93934 16.0607C2.22065 16.342 2.60218 16.5 3 16.5ZM3 12.5H9C9.39783 12.5 9.77936 12.342 10.0607 12.0607C10.342 11.7794 10.5 11.3978 10.5 11C10.5 10.6022 10.342 10.2206 10.0607 9.93934C9.77936 9.65804 9.39783 9.5 9 9.5H3C2.60217 9.5 2.22064 9.65804 1.93934 9.93934C1.65804 10.2206 1.5 10.6022 1.5 11C1.5 11.3978 1.65804 11.7794 1.93934 12.0607C2.22064 12.342 2.60217 12.5 3 12.5ZM3 8.5H9C9.39783 8.5 9.77936 8.34196 10.0607 8.06066C10.342 7.77936 10.5 7.39782 10.5 7C10.5 6.60218 10.342 6.22064 10.0607 5.93934C9.77936 5.65804 9.39783 5.5 9 5.5H3C2.60217 5.5 2.22064 5.65804 1.93934 5.93934C1.65804 6.22064 1.5 6.60218 1.5 7C1.5 7.39782 1.65804 7.77936 1.93934 8.06066C2.22064 8.34196 2.60217 8.5 3 8.5ZM3 4.5H9C9.39783 4.5 9.77936 4.34196 10.0607 4.06066C10.342 3.77936 10.5 3.39783 10.5 3C10.5 2.60217 10.342 2.22064 10.0607 1.93934C9.77936 1.65804 9.39783 1.5 9 1.5H3C2.60217 1.5 2.22064 1.65804 1.93934 1.93934C1.65804 2.22064 1.5 2.60217 1.5 3C1.5 3.39783 1.65804 3.77936 1.93934 4.06066C2.22064 4.34196 2.60217 4.5 3 4.5Z" stroke="#0061FF"/>
</svg>
