<svg width="21" height="20" viewBox="0 0 21 20" fill="none" xmlns="http://www.w3.org/2000/svg">
<path d="M10.0277 0C8.71458 0 7.41428 0.258646 6.20108 0.761171C4.98788 1.2637 3.88553 2.00026 2.95699 2.9288C1.08171 4.80408 0.0281851 7.34751 0.0281851 9.99956C0.0194433 12.3086 0.818943 14.5479 2.28809 16.3293L0.288174 18.3292C0.149422 18.4698 0.05543 18.6484 0.0180576 18.8424C-0.0193149 19.0363 0.00160683 19.237 0.0781829 19.4191C0.161237 19.5991 0.295877 19.7502 0.465013 19.8535C0.634148 19.9568 0.830151 20.0075 1.02814 19.9991H10.0277C12.6798 19.9991 15.2232 18.9456 17.0985 17.0703C18.9738 15.195 20.0273 12.6516 20.0273 9.99956C20.0273 7.34751 18.9738 4.80408 17.0985 2.9288C15.2232 1.05352 12.6798 0 10.0277 0ZM10.0277 17.9992H3.43803L4.36799 17.0692C4.55424 16.8819 4.65877 16.6284 4.65877 16.3643C4.65877 16.1001 4.55424 15.8467 4.36799 15.6593C3.05864 14.3514 2.24326 12.63 2.06079 10.7883C1.87831 8.94665 2.34003 7.09869 3.36726 5.55928C4.3945 4.01986 5.92372 2.88423 7.69436 2.34587C9.46501 1.80751 11.3675 1.89972 13.0778 2.6068C14.7881 3.31388 16.2003 4.59207 17.0739 6.22362C17.9474 7.85516 18.2283 9.73911 17.8685 11.5545C17.5088 13.3699 16.5308 15.0044 15.1011 16.1795C13.6714 17.3547 11.8784 17.9977 10.0277 17.9992ZM15.0275 8.9996H5.02796C4.76276 8.9996 4.50842 9.10495 4.32089 9.29248C4.13336 9.48001 4.02801 9.73435 4.02801 9.99956C4.02801 10.2648 4.13336 10.5191 4.32089 10.7066C4.50842 10.8942 4.76276 10.9995 5.02796 10.9995H15.0275C15.2927 10.9995 15.5471 10.8942 15.7346 10.7066C15.9221 10.5191 16.0275 10.2648 16.0275 9.99956C16.0275 9.73435 15.9221 9.48001 15.7346 9.29248C15.5471 9.10495 15.2927 8.9996 15.0275 8.9996ZM13.0276 12.9994H7.02788C6.76267 12.9994 6.50833 13.1048 6.3208 13.2923C6.13327 13.4798 6.02792 13.7342 6.02792 13.9994C6.02792 14.2646 6.13327 14.5189 6.3208 14.7065C6.50833 14.894 6.76267 14.9993 7.02788 14.9993H13.0276C13.2928 14.9993 13.5472 14.894 13.7347 14.7065C13.9222 14.5189 14.0276 14.2646 14.0276 13.9994C14.0276 13.7342 13.9222 13.4798 13.7347 13.2923C13.5472 13.1048 13.2928 12.9994 13.0276 12.9994ZM7.02788 6.99969H13.0276C13.2928 6.99969 13.5472 6.89434 13.7347 6.70681C13.9222 6.51928 14.0276 6.26494 14.0276 5.99973C14.0276 5.73453 13.9222 5.48019 13.7347 5.29266C13.5472 5.10513 13.2928 4.99978 13.0276 4.99978H7.02788C6.76267 4.99978 6.50833 5.10513 6.3208 5.29266C6.13327 5.48019 6.02792 5.73453 6.02792 5.99973C6.02792 6.26494 6.13327 6.51928 6.3208 6.70681C6.50833 6.89434 6.76267 6.99969 7.02788 6.99969Z" fill="#424C5D"/>
</svg>
