<svg width="20" height="20" viewBox="0 0 20 20" fill="none" xmlns="http://www.w3.org/2000/svg">
<path d="M10.6586 16.455C7.96734 16.455 6.17234 15.0712 6.02734 12.9425H7.56484C7.74484 14.2675 8.97609 15.0712 10.7448 15.0712C12.4198 15.0712 13.6323 14.19 13.6323 12.9775C13.6323 11.9437 12.9486 11.26 11.2398 10.8837L10.0573 10.625H14.3698C14.9548 11.1712 15.2136 11.8675 15.2136 12.7462C15.2136 15.0287 13.4186 16.455 10.6586 16.455ZM8.25234 8.12497H6.45859C6.37362 7.81554 6.33197 7.49583 6.33484 7.17496C6.33484 5.14122 8.12984 3.71497 10.6848 3.71497C13.1461 3.71497 14.9223 5.18372 14.9911 7.27747H13.4536C13.3161 5.92747 12.2486 5.09872 10.6411 5.09872C9.10359 5.09872 7.91609 5.85122 7.91609 7.10747C7.91609 7.49497 8.01984 7.83371 8.25359 8.12497H8.25234Z" fill="#979FA5"/>
<path fill-rule="evenodd" clip-rule="evenodd" d="M18.75 10.625H1.25V9.375H18.75V10.625Z" fill="#979FA5"/>
</svg>
