<svg width="18" height="14" viewBox="0 0 18 14" fill="none" xmlns="http://www.w3.org/2000/svg">
<path fill-rule="evenodd" clip-rule="evenodd" d="M5.14338 12.2148C5.14338 12.0443 5.21111 11.8808 5.33166 11.7602C5.45221 11.6397 5.61572 11.5719 5.7862 11.5719H17.357C17.5275 11.5719 17.691 11.6397 17.8115 11.7602C17.9321 11.8808 17.9998 12.0443 17.9998 12.2148C17.9998 12.3852 17.9321 12.5487 17.8115 12.6693C17.691 12.7899 17.5275 12.8576 17.357 12.8576H5.7862C5.61572 12.8576 5.45221 12.7899 5.33166 12.6693C5.21111 12.5487 5.14338 12.3852 5.14338 12.2148ZM5.14338 7.07218C5.14338 6.9017 5.21111 6.73819 5.33166 6.61764C5.45221 6.49709 5.61572 6.42936 5.7862 6.42936H17.357C17.5275 6.42936 17.691 6.49709 17.8115 6.61764C17.9321 6.73819 17.9998 6.9017 17.9998 7.07218C17.9998 7.24267 17.9321 7.40617 17.8115 7.52673C17.691 7.64728 17.5275 7.715 17.357 7.715H5.7862C5.61572 7.715 5.45221 7.64728 5.33166 7.52673C5.21111 7.40617 5.14338 7.24267 5.14338 7.07218ZM5.14338 1.92961C5.14338 1.75913 5.21111 1.59562 5.33166 1.47507C5.45221 1.35452 5.61572 1.28679 5.7862 1.28679H17.357C17.5275 1.28679 17.691 1.35452 17.8115 1.47507C17.9321 1.59562 17.9998 1.75913 17.9998 1.92961C17.9998 2.1001 17.9321 2.2636 17.8115 2.38416C17.691 2.50471 17.5275 2.57243 17.357 2.57243H5.7862C5.61572 2.57243 5.45221 2.50471 5.33166 2.38416C5.21111 2.2636 5.14338 2.1001 5.14338 1.92961ZM3.67004 0.188853C3.7299 0.248565 3.77739 0.319501 3.8098 0.397598C3.84221 0.475695 3.85889 0.559417 3.85889 0.64397C3.85889 0.728524 3.84221 0.812246 3.8098 0.890343C3.77739 0.968439 3.7299 1.03938 3.67004 1.09909L1.74157 3.02755C1.68186 3.08742 1.61092 3.13491 1.53283 3.16732C1.45473 3.19972 1.37101 3.2164 1.28645 3.2164C1.2019 3.2164 1.11818 3.19972 1.04008 3.16732C0.961986 3.13491 0.89105 3.08742 0.831337 3.02755L0.188516 2.38473C0.128749 2.32496 0.0813392 2.25401 0.0489936 2.17592C0.016648 2.09783 8.90596e-10 2.01414 0 1.92961C-8.90596e-10 1.84509 0.016648 1.76139 0.0489936 1.68331C0.0813392 1.60522 0.128749 1.53426 0.188516 1.4745C0.248283 1.41473 0.319236 1.36732 0.397326 1.33497C0.475415 1.30263 0.55911 1.28598 0.643633 1.28598C0.728156 1.28598 0.811852 1.30263 0.889941 1.33497C0.96803 1.36732 1.03898 1.41473 1.09875 1.4745L1.28645 1.66349L2.7598 0.188853C2.81951 0.128989 2.89045 0.081494 2.96855 0.0490875C3.04664 0.016681 3.13036 0 3.21492 0C3.29947 0 3.38319 0.016681 3.46129 0.0490875C3.53939 0.081494 3.61032 0.128989 3.67004 0.188853ZM3.67004 5.33142C3.7299 5.39114 3.77739 5.46207 3.8098 5.54017C3.84221 5.61827 3.85889 5.70199 3.85889 5.78654C3.85889 5.87109 3.84221 5.95482 3.8098 6.03291C3.77739 6.11101 3.7299 6.18195 3.67004 6.24166L1.74157 8.17012C1.68186 8.22999 1.61092 8.27748 1.53283 8.30989C1.45473 8.34229 1.37101 8.35897 1.28645 8.35897C1.2019 8.35897 1.11818 8.34229 1.04008 8.30989C0.961986 8.27748 0.89105 8.22999 0.831337 8.17012L0.188516 7.5273C0.0678112 7.4066 0 7.24289 0 7.07218C0 6.90148 0.0678112 6.73777 0.188516 6.61707C0.309221 6.49636 0.472931 6.42855 0.643633 6.42855C0.814335 6.42855 0.978046 6.49636 1.09875 6.61707L1.28645 6.80606L2.7598 5.33142C2.81951 5.27156 2.89045 5.22406 2.96855 5.19166C3.04664 5.15925 3.13036 5.14257 3.21492 5.14257C3.29947 5.14257 3.38319 5.15925 3.46129 5.19166C3.53939 5.22406 3.61032 5.27156 3.67004 5.33142ZM3.67004 10.474C3.7299 10.5337 3.77739 10.6046 3.8098 10.6827C3.84221 10.7608 3.85889 10.8446 3.85889 10.9291C3.85889 11.0137 3.84221 11.0974 3.8098 11.1755C3.77739 11.2536 3.7299 11.3245 3.67004 11.3842L1.74157 13.3127C1.68186 13.3726 1.61092 13.4201 1.53283 13.4525C1.45473 13.4849 1.37101 13.5015 1.28645 13.5015C1.2019 13.5015 1.11818 13.4849 1.04008 13.4525C0.961986 13.4201 0.89105 13.3726 0.831337 13.3127L0.188516 12.6699C0.0678112 12.5492 0 12.3855 0 12.2148C0 12.0441 0.0678112 11.8803 0.188516 11.7596C0.309221 11.6389 0.472931 11.5711 0.643633 11.5711C0.814335 11.5711 0.978046 11.6389 1.09875 11.7596L1.28645 11.9486L2.7598 10.474C2.81951 10.4141 2.89045 10.3666 2.96855 10.3342C3.04664 10.3018 3.13036 10.2851 3.21492 10.2851C3.29947 10.2851 3.38319 10.3018 3.46129 10.3342C3.53939 10.3666 3.61032 10.4141 3.67004 10.474Z" fill="#979FA5"/>
</svg>
