<svg width="19" height="18" viewBox="0 0 19 18" fill="none" xmlns="http://www.w3.org/2000/svg">
<path d="M18.7432 8.76825C18.7432 10.0007 17.7804 10.6554 16.4324 10.6554H12.5426C12.8122 11.6953 12.9662 12.6966 12.9662 13.5439C12.9662 16.8946 12.0419 17.5878 11.2331 17.5878C10.6939 17.5878 10.3088 17.5493 9.76959 17.2027C9.61554 17.1257 9.53851 16.9716 9.5 16.8176L8.9223 13.698C8.30608 12.0419 6.72703 10.6169 5.45608 9.65405V1.41216C5.87973 1.41216 6.41892 1.18109 6.91959 0.911491C7.53581 0.603384 8.19054 0.295273 8.9223 0.295273H14.4297C15.5851 0.295273 16.4324 1.2196 16.4324 2.02838C16.4324 2.18243 16.4324 2.33649 16.3939 2.45203C17.1257 2.72163 17.5878 3.33783 17.5878 4.03108C17.5878 4.3777 17.5108 4.68581 17.3953 4.91689C17.8189 5.225 18.2811 5.72567 18.2811 6.34189C18.2811 6.65 18.127 7.03513 17.8959 7.30473C18.3966 7.68986 18.7432 8.22906 18.7432 8.76825ZM17.5493 8.76825C17.5493 8.03649 16.7791 7.95946 16.6635 7.61284C16.548 7.22771 17.1257 7.07365 17.1257 6.3804C17.1257 5.64865 16.2399 5.64865 16.1243 5.30203C15.9703 4.87838 16.3939 4.72432 16.3939 4.03108C16.3939 3.99256 16.3939 3.95405 16.3939 3.91554C16.2784 3.33784 15.3926 3.29932 15.2385 3.06824C15.0845 2.79864 15.277 2.6446 15.277 2.02838C15.277 1.68176 14.8919 1.45068 14.4297 1.45068H8.9223C8.49865 1.45068 7.95946 1.68175 7.45878 1.95135C6.99662 2.18243 6.53446 2.41351 6.03378 2.52905V8.6527C7.45878 9.73108 9.30743 11.3872 10.0392 13.3899C10.0392 13.4284 10.0392 13.4669 10.0777 13.4669L10.6169 16.3554C10.8095 16.4324 10.9635 16.4324 11.2716 16.4324C11.3872 16.4324 11.8493 15.7392 11.8493 13.5439C11.8493 12.6966 11.6953 11.7338 11.3872 10.6554H11.2331C10.925 10.6554 10.6554 10.3858 10.6554 10.0777C10.6554 9.76959 10.925 9.5 11.2331 9.5H16.4324C17.0101 9.5 17.5493 9.23041 17.5493 8.76825Z" fill="#75839D" stroke="#75839D" stroke-width="0.5"/>
<path d="M4.87838 0.256757H1.41216C0.757432 0.256757 0.256757 0.757433 0.256757 1.41216V9.5C0.256757 10.1547 0.757432 10.6554 1.41216 10.6554H4.87838C5.53311 10.6554 6.03378 10.1547 6.03378 9.5V1.41216C6.03378 0.757433 5.53311 0.256757 4.87838 0.256757ZM1.41216 9.5V1.41216H4.87838V9.5H1.41216Z" fill="#75839D" stroke="#75839D" stroke-width="0.5"/>
</svg>
