<svg width="22" height="17" viewBox="0 0 22 17" fill="none" xmlns="http://www.w3.org/2000/svg">
<path d="M0 16L0.5 16.0005C0.50138 14.5598 0.917651 13.1501 1.69904 11.9397C2.48044 10.7294 3.59388 9.76975 4.90625 9.17548L5.61789 8.85323L5.02724 8.34196C4.54788 7.92703 4.1634 7.41383 3.89989 6.8372C3.63637 6.26057 3.49999 5.634 3.5 5.00001C3.5 3.80653 3.97411 2.66193 4.81802 1.81802C5.66193 0.974106 6.80653 0.5 8 0.5C9.19347 0.5 10.3381 0.974106 11.182 1.81802C12.0259 2.66193 12.5 3.80653 12.5 5C12.5 5.634 12.3636 6.26057 12.1001 6.8372C11.8366 7.41383 11.4521 7.92703 10.9728 8.34196L10.3821 8.85323L11.0938 9.17548C12.4061 9.76975 13.5196 10.7294 14.301 11.9397C15.0823 13.1501 15.4986 14.5598 15.5 16.0005L16 16M0 16H0.5C0.5 16.1326 0.552679 16.2598 0.646446 16.3536C0.740214 16.4473 0.867391 16.5 1 16.5C1.13261 16.5 1.25979 16.4473 1.35355 16.3536C1.44732 16.2598 1.5 16.1326 1.5 16C1.5 14.2761 2.18482 12.6228 3.40381 11.4038C4.62279 10.1848 6.27609 9.5 8 9.5C9.72391 9.5 11.3772 10.1848 12.5962 11.4038C13.8152 12.6228 14.5 14.2761 14.5 16C14.5 16.1326 14.5527 16.2598 14.6464 16.3536C14.7402 16.4473 14.8674 16.5 15 16.5C15.1326 16.5 15.2598 16.4473 15.3536 16.3536C15.4473 16.2598 15.5 16.1326 15.5 16H16M0 16C0 16.2652 0.105357 16.5196 0.292893 16.7071C0.48043 16.8946 0.734784 17 1 17C1.26522 17 1.51957 16.8946 1.70711 16.7071C1.89464 16.5196 2 16.2652 2 16C2 14.4087 2.63214 12.8826 3.75736 11.7574C4.88258 10.6321 6.4087 10 8 10C9.5913 10 11.1174 10.6321 12.2426 11.7574C13.3679 12.8826 14 14.4087 14 16C14 16.2652 14.1054 16.5196 14.2929 16.7071C14.4804 16.8946 14.7348 17 15 17C15.2652 17 15.5196 16.8946 15.7071 16.7071C15.8946 16.5196 16 16.2652 16 16M0 16C0.00147185 14.4633 0.445495 12.9596 1.27898 11.6685C2.01493 10.5286 3.02703 9.59712 4.21752 8.95834C4.26832 9.00586 4.32007 9.05243 4.37276 9.09804L4.7 8.72L4.49375 8.26452C4.43374 8.2917 4.37409 8.31954 4.31483 8.34806C3.95797 7.96379 3.66405 7.52408 3.44513 7.04502C3.1518 6.40316 2.99999 5.70571 3 5C3 3.67392 3.52678 2.40215 4.46447 1.46447C5.40215 0.526784 6.67392 0 8 0C9.32608 0 10.5979 0.526784 11.5355 1.46447C12.4732 2.40215 13 3.67392 13 5C13 5.70571 12.8482 6.40316 12.5549 7.04502C12.336 7.52408 12.042 7.96379 11.6852 8.34806L11.7825 8.95834M16 16C15.9985 14.4633 15.5545 12.9596 14.721 11.6685C13.9851 10.5286 12.973 9.59712 11.7825 8.95834M11.7825 8.95834C11.7317 9.00586 11.6799 9.05243 11.6272 9.09804L11.3 8.72L11.7825 8.95834ZM17.3661 7.988L16.9733 8.43042L17.475 8.744C18.7041 9.51213 19.7163 10.5818 20.4155 11.8513C21.1147 13.1208 21.4777 14.548 21.47 15.9973V16C21.47 16.1326 21.4173 16.2598 21.3236 16.3536C21.2298 16.4473 21.1026 16.5 20.97 16.5C20.8374 16.5 20.7102 16.4473 20.6164 16.3536C20.5231 16.2602 20.4704 16.1337 20.47 16.0016C20.4809 14.5731 20.0835 13.1711 19.3246 11.9607C18.5676 10.7533 17.4824 9.78667 16.196 9.17382L16.0978 9.12092L15.7274 8.87397L15.7274 8.87397L15.7248 8.87232C15.6539 8.82564 15.596 8.76167 15.5567 8.68645C15.5174 8.61134 15.4978 8.52748 15.4998 8.44275C15.5021 8.35733 15.5263 8.27392 15.57 8.20048C15.6138 8.12694 15.6757 8.06587 15.7498 8.02311L15.75 8.02301C16.2807 7.71662 16.7216 7.27628 17.0287 6.74601C17.3358 6.21573 17.4983 5.61413 17.5 5.00135V5C17.5 4.07174 17.1313 3.1815 16.4749 2.52513C15.8185 1.86875 14.9283 1.5 14 1.5C13.8674 1.5 13.7402 1.44732 13.6464 1.35355C13.5527 1.25978 13.5 1.13261 13.5 1C13.5 0.867392 13.5527 0.740215 13.6464 0.646447C13.7402 0.552679 13.8674 0.5 14 0.5H14.0001C14.8676 0.499768 15.7166 0.750245 16.445 1.22128C17.1733 1.69232 17.7501 2.36383 18.1057 3.155C18.4614 3.94617 18.5808 4.82326 18.4496 5.6807C18.3183 6.53815 17.9421 7.3394 17.3661 7.988ZM6.0555 7.91014C6.63108 8.29473 7.30777 8.5 8 8.5C8.92826 8.5 9.8185 8.13125 10.4749 7.47487C11.1313 6.8185 11.5 5.92826 11.5 5C11.5 4.30777 11.2947 3.63108 10.9101 3.0555C10.5256 2.47993 9.97893 2.03133 9.33939 1.76642C8.69985 1.50152 7.99612 1.4322 7.31718 1.56725C6.63825 1.7023 6.01461 2.03564 5.52513 2.52513C5.03564 3.01461 4.7023 3.63825 4.56725 4.31718C4.4322 4.99612 4.50152 5.69985 4.76642 6.33939C5.03133 6.97893 5.47993 7.52556 6.0555 7.91014Z" fill="black" stroke="#0061FF"/>
</svg>
