<svg width="18" height="13" viewBox="0 0 18 13" fill="none" xmlns="http://www.w3.org/2000/svg">
<path fill-rule="evenodd" clip-rule="evenodd" d="M5.14286 11.5714C5.14286 11.4009 5.21059 11.2374 5.33115 11.1169C5.4517 10.9963 5.61522 10.9286 5.78571 10.9286H17.3571C17.5276 10.9286 17.6912 10.9963 17.8117 11.1169C17.9323 11.2374 18 11.4009 18 11.5714C18 11.7419 17.9323 11.9054 17.8117 12.026C17.6912 12.1466 17.5276 12.2143 17.3571 12.2143H5.78571C5.61522 12.2143 5.4517 12.1466 5.33115 12.026C5.21059 11.9054 5.14286 11.7419 5.14286 11.5714ZM5.14286 6.42857C5.14286 6.25807 5.21059 6.09456 5.33115 5.974C5.4517 5.85344 5.61522 5.78571 5.78571 5.78571H17.3571C17.5276 5.78571 17.6912 5.85344 17.8117 5.974C17.9323 6.09456 18 6.25807 18 6.42857C18 6.59907 17.9323 6.76258 17.8117 6.88314C17.6912 7.0037 17.5276 7.07143 17.3571 7.07143H5.78571C5.61522 7.07143 5.4517 7.0037 5.33115 6.88314C5.21059 6.76258 5.14286 6.59907 5.14286 6.42857ZM5.14286 1.28571C5.14286 1.11522 5.21059 0.951705 5.33115 0.831146C5.4517 0.710587 5.61522 0.642857 5.78571 0.642857H17.3571C17.5276 0.642857 17.6912 0.710587 17.8117 0.831146C17.9323 0.951705 18 1.11522 18 1.28571C18 1.45621 17.9323 1.61972 17.8117 1.74028C17.6912 1.86084 17.5276 1.92857 17.3571 1.92857H5.78571C5.61522 1.92857 5.4517 1.86084 5.33115 1.74028C5.21059 1.61972 5.14286 1.45621 5.14286 1.28571ZM1.28571 2.57143C1.62671 2.57143 1.95373 2.43597 2.19485 2.19485C2.43597 1.95373 2.57143 1.62671 2.57143 1.28571C2.57143 0.944722 2.43597 0.617695 2.19485 0.376577C1.95373 0.135459 1.62671 0 1.28571 0C0.944722 0 0.617695 0.135459 0.376577 0.376577C0.135459 0.617695 0 0.944722 0 1.28571C0 1.62671 0.135459 1.95373 0.376577 2.19485C0.617695 2.43597 0.944722 2.57143 1.28571 2.57143ZM1.28571 7.71429C1.62671 7.71429 1.95373 7.57883 2.19485 7.33771C2.43597 7.09659 2.57143 6.76956 2.57143 6.42857C2.57143 6.08758 2.43597 5.76055 2.19485 5.51943C1.95373 5.27832 1.62671 5.14286 1.28571 5.14286C0.944722 5.14286 0.617695 5.27832 0.376577 5.51943C0.135459 5.76055 0 6.08758 0 6.42857C0 6.76956 0.135459 7.09659 0.376577 7.33771C0.617695 7.57883 0.944722 7.71429 1.28571 7.71429ZM1.28571 12.8571C1.62671 12.8571 1.95373 12.7217 2.19485 12.4806C2.43597 12.2394 2.57143 11.9124 2.57143 11.5714C2.57143 11.2304 2.43597 10.9034 2.19485 10.6623C1.95373 10.4212 1.62671 10.2857 1.28571 10.2857C0.944722 10.2857 0.617695 10.4212 0.376577 10.6623C0.135459 10.9034 0 11.2304 0 11.5714C0 11.9124 0.135459 12.2394 0.376577 12.4806C0.617695 12.7217 0.944722 12.8571 1.28571 12.8571Z" fill="#979FA5"/>
</svg>
