<svg width="20" height="20" viewBox="0 0 20 20" fill="none" xmlns="http://www.w3.org/2000/svg">
<path d="M5.89352 8.1775L4.17852 9.8925C3.4752 10.5958 3.08008 11.5497 3.08008 12.5444C3.08008 13.539 3.4752 14.4929 4.17852 15.1962C4.88184 15.8996 5.83575 16.2947 6.8304 16.2947C7.82504 16.2947 8.77895 15.8996 9.48227 15.1962L11.7673 12.91C12.1914 12.4858 12.5076 11.9661 12.6893 11.3944C12.871 10.8228 12.9129 10.2159 12.8115 9.62467C12.7101 9.03346 12.4683 8.47521 12.1066 7.99676C11.7448 7.51831 11.2735 7.13362 10.7323 6.875L9.99977 7.6075C9.9254 7.68199 9.86072 7.76557 9.80727 7.85625C10.2254 7.97646 10.605 8.20372 10.9084 8.51557C11.2118 8.82742 11.4286 9.21305 11.5373 9.63435C11.646 10.0556 11.6428 10.498 11.5282 10.9177C11.4135 11.3375 11.1913 11.72 10.8835 12.0275L8.59977 14.3125C8.13067 14.7816 7.49443 15.0451 6.83102 15.0451C6.16761 15.0451 5.53137 14.7816 5.06227 14.3125C4.59317 13.8434 4.32963 13.2072 4.32963 12.5437C4.32963 11.8803 4.59317 11.2441 5.06227 10.775L6.05352 9.785C5.91366 9.26091 5.85963 8.71762 5.89352 8.17625V8.1775Z" fill="#979FA5"/>
<path d="M7.1402 8.70002L7.34896 8.49127C7.65865 8.18043 8.04505 7.95704 8.46895 7.84377C8.58223 7.41986 8.80562 7.03346 9.11645 6.72377L9.3252 6.51502C8.69641 6.47966 8.06883 6.60303 7.5002 6.87377C7.2252 7.44877 7.1052 8.07752 7.1402 8.69877V8.70002Z" fill="#979FA5"/>
<path d="M8.23244 5.84005C7.80832 6.26423 7.49214 6.78396 7.31045 7.35561C7.12876 7.92727 7.08685 8.53417 7.18824 9.12538C7.28963 9.71658 7.53136 10.2748 7.89315 10.7533C8.25494 11.2317 8.72622 11.6164 9.26744 11.875L10.2362 10.905C9.81237 10.7914 9.42594 10.5681 9.11573 10.2578C8.80552 9.94746 8.58246 9.56094 8.46895 9.13707C8.35545 8.71321 8.35551 8.26694 8.46912 7.8431C8.58273 7.41927 8.8059 7.03281 9.11619 6.72255L11.3999 4.43755C11.869 3.96844 12.5053 3.70491 13.1687 3.70491C13.8321 3.70491 14.4683 3.96844 14.9374 4.43755C15.4065 4.90665 15.6701 5.54289 15.6701 6.2063C15.6701 6.86971 15.4065 7.50594 14.9374 7.97505L13.9462 8.96505C14.0862 9.49005 14.1399 10.0338 14.1062 10.5738L15.8212 8.8588C16.5245 8.15547 16.9196 7.20157 16.9196 6.20692C16.9196 5.21228 16.5245 4.25837 15.8212 3.55505C15.1179 2.85173 14.164 2.4566 13.1693 2.4566C12.1747 2.4566 11.2208 2.85173 10.5174 3.55505L8.23244 5.84005Z" fill="#979FA5"/>
<path d="M12.4998 11.875C12.7717 11.3067 12.8955 10.6789 12.8598 10.05L12.6511 10.2587C12.3414 10.5696 11.955 10.793 11.5311 10.9062C11.4178 11.3301 11.1944 11.7165 10.8836 12.0262L10.6748 12.235C11.3036 12.2703 11.9312 12.147 12.4998 11.8762V11.875Z" fill="#979FA5"/>
</svg>
