<svg width="12" height="13" viewBox="0 0 12 13" fill="none" xmlns="http://www.w3.org/2000/svg">
<path d="M0.0751472 6.3884C0.122761 6.5112 0.194156 6.62339 0.285234 6.71853L5.28727 11.7206C5.38054 11.8138 5.49128 11.8878 5.61315 11.9383C5.73502 11.9888 5.86564 12.0148 5.99756 12.0148C6.26397 12.0148 6.51947 11.9089 6.70785 11.7206C6.80112 11.6273 6.87511 11.5166 6.9256 11.3947C6.97608 11.2728 7.00206 11.1422 7.00206 11.0103C7.00206 10.7439 6.89623 10.4884 6.70785 10.3L3.4065 7.00865L10.9996 7.00865C11.2649 7.00865 11.5194 6.90325 11.707 6.71564C11.8946 6.52802 12 6.27357 12 6.00824C12 5.74292 11.8946 5.48846 11.707 5.30085C11.5194 5.11323 11.2649 5.00783 10.9996 5.00783L3.4065 5.00783L6.70785 1.71649C6.80161 1.62349 6.87604 1.51285 6.92683 1.39094C6.97762 1.26903 7.00376 1.13827 7.00376 1.00621C7.00376 0.874141 6.97762 0.743382 6.92683 0.621473C6.87604 0.499564 6.80161 0.388919 6.70785 0.295918C6.61484 0.202152 6.5042 0.127726 6.38229 0.0769361C6.26038 0.0261466 6.12962 -1.39492e-06 5.99756 -1.38337e-06C5.86549 -1.37183e-06 5.73473 0.0261466 5.61282 0.0769362C5.49091 0.127726 5.38027 0.202152 5.28727 0.295918L0.285234 5.29795C0.194156 5.3931 0.122761 5.50529 0.0751471 5.62809C-0.0249111 5.87165 -0.0249111 6.14484 0.0751472 6.3884Z" fill="black"/>
</svg>
