<svg width="12" height="14" viewBox="0 0 12 14" fill="none" xmlns="http://www.w3.org/2000/svg">
<path d="M10.1088 1.7344C8.99833 0.623884 7.49214 -1.17012e-08 5.92162 0C4.35111 1.17012e-08 2.84492 0.623884 1.7344 1.7344C0.623884 2.84492 1.17012e-08 4.35111 0 5.92163C-1.17012e-08 7.49214 0.623884 8.99833 1.7344 10.1088L5.41218 13.7936C5.47706 13.859 5.55424 13.9109 5.63928 13.9464C5.72433 13.9818 5.81554 14 5.90767 14C5.99979 14 6.09101 13.9818 6.17605 13.9464C6.26109 13.9109 6.33828 13.859 6.40316 13.7936L10.1088 10.074C11.2147 8.96805 11.836 7.46814 11.836 5.90418C11.836 4.34021 11.2147 2.8403 10.1088 1.7344ZM9.11089 9.076L5.92162 12.2792L2.73236 9.076C2.10228 8.44535 1.67332 7.64205 1.49971 6.76765C1.32609 5.89325 1.41561 4.987 1.75695 4.16347C2.09829 3.33993 2.67612 2.63609 3.41741 2.1409C4.1587 1.64571 5.03015 1.38141 5.92162 1.38141C6.8131 1.38141 7.68455 1.64571 8.42584 2.1409C9.16713 2.63609 9.74496 3.33993 10.0863 4.16347C10.4276 4.987 10.5172 5.89325 10.3435 6.76765C10.1699 7.64205 9.74097 8.44535 9.11089 9.076ZM3.82801 3.77916C3.26463 4.34428 2.94828 5.1097 2.94828 5.90767C2.94828 6.70564 3.26463 7.47106 3.82801 8.03617C4.24657 8.45545 4.77962 8.74178 5.36029 8.85924C5.94096 8.97671 6.54339 8.92008 7.092 8.69647C7.64061 8.47285 8.11097 8.0922 8.44406 7.60227C8.77716 7.11235 8.95815 6.53496 8.96434 5.94256C8.96748 5.54701 8.89129 5.15485 8.74026 4.78925C8.58922 4.42366 8.36642 4.09206 8.08502 3.81406C7.80844 3.53113 7.47863 3.30569 7.11458 3.15071C6.75053 2.99573 6.35943 2.91428 5.96378 2.91103C5.56813 2.90779 5.17574 2.98282 4.8092 3.13181C4.44266 3.2808 4.1092 3.5008 3.82801 3.77916ZM7.10103 7.0452C6.83656 7.3137 6.48705 7.482 6.11223 7.52132C5.73742 7.56065 5.36058 7.46855 5.04615 7.26079C4.73172 7.05302 4.49922 6.74249 4.38841 6.38228C4.27759 6.02207 4.29534 5.63455 4.43862 5.28597C4.5819 4.9374 4.84181 4.64942 5.17392 4.47127C5.50602 4.29312 5.8897 4.23586 6.25935 4.30928C6.629 4.3827 6.96167 4.58224 7.20048 4.8738C7.43929 5.16535 7.56941 5.5308 7.5686 5.90767C7.55845 6.33844 7.37773 6.74757 7.06613 7.0452H7.10103Z" fill="#0061FF"/>
</svg>
