<svg width="42" height="42" viewBox="0 0 42 42" fill="none" xmlns="http://www.w3.org/2000/svg">
<path d="M39.8999 25.2C38.6399 25.2 37.7999 26.0399 37.7999 27.2999V35.6999C37.7999 36.9599 36.9599 37.7999 35.6999 37.7999H6.29999C5.03999 37.7999 4.19999 36.9599 4.19999 35.6999V27.2999C4.19999 26.0399 3.35999 25.2 2.1 25.2C0.839998 25.2 0 26.0399 0 27.2999V35.6999C0 39.2699 2.72999 41.9999 6.29999 41.9999H35.6999C39.2699 41.9999 41.9999 39.2699 41.9999 35.6999V27.2999C41.9999 26.0399 41.1599 25.2 39.8999 25.2ZM19.53 28.7699C20.37 29.6099 21.63 29.6099 22.47 28.7699L30.8699 20.37C31.7099 19.53 31.7099 18.27 30.8699 17.43C30.0299 16.59 28.7699 16.59 27.9299 17.43L23.1 22.26V2.1C23.1 0.839998 22.26 0 21 0C19.74 0 18.9 0.839998 18.9 2.1V22.26L14.07 17.43C13.23 16.59 11.97 16.59 11.13 17.43C10.29 18.27 10.29 19.53 11.13 20.37L19.53 28.7699Z" fill="#0061FF"/>
</svg>
