<svg width="19" height="12" viewBox="0 0 19 12" fill="none" xmlns="http://www.w3.org/2000/svg">
<path d="M8.99557 12V0.240705H7.41019V5.2199H1.58664V0.241966H0V12H1.58538V6.61624H7.40767V12H8.99431H8.99557ZM12.804 3.5148V3.45431C12.804 2.33396 13.598 1.35223 14.9666 1.35223C16.1726 1.35223 17.0775 2.11846 17.0775 3.33333C17.0775 4.41083 16.3793 5.22872 15.7328 5.96092L11.3056 11.0006V12H18.9035V10.6213H13.5538V10.5268L16.6805 6.94264C17.7832 5.68493 18.6792 4.69438 18.6792 3.22117C18.6792 1.37744 17.2237 0 15.0006 0C12.5545 0 11.2627 1.67107 11.2627 3.45305V3.5148H12.804Z" fill="#979FA5"/>
</svg>
