<svg width="19" height="18" viewBox="0 0 19 18" fill="none" xmlns="http://www.w3.org/2000/svg">
<path d="M18.7432 9.07635C18.7432 7.84392 17.7804 7.18919 16.4324 7.18919H12.5426C12.8122 6.14932 12.9662 5.14797 12.9662 4.30068C12.9662 0.95 12.0419 0.256757 11.2331 0.256757C10.6939 0.256757 10.3088 0.29527 9.76959 0.641892C9.61554 0.718919 9.53851 0.872973 9.5 1.02703L8.9223 4.14662C8.30608 5.80271 6.72703 7.22771 5.45608 8.19054V16.4324C5.87973 16.4324 6.41892 16.6635 6.91959 16.9331C7.53581 17.2412 8.19054 17.5493 8.9223 17.5493H14.4297C15.5851 17.5493 16.4324 16.625 16.4324 15.8162C16.4324 15.6622 16.4324 15.5081 16.3939 15.3926C17.1257 15.123 17.5878 14.5068 17.5878 13.8135C17.5878 13.4669 17.5108 13.1588 17.3953 12.9277C17.8189 12.6196 18.2811 12.1189 18.2811 11.5027C18.2811 11.1946 18.127 10.8095 17.8959 10.5399C18.3966 10.1547 18.7432 9.61554 18.7432 9.07635ZM17.5493 9.07635C17.5493 9.80811 16.7791 9.88513 16.6635 10.2318C16.548 10.6169 17.1257 10.7709 17.1257 11.4642C17.1257 12.1959 16.2399 12.1959 16.1243 12.5426C15.9703 12.9662 16.3939 13.1203 16.3939 13.8135C16.3939 13.852 16.3939 13.8905 16.3939 13.9291C16.2784 14.5068 15.3926 14.5453 15.2385 14.7764C15.0845 15.046 15.277 15.2 15.277 15.8162C15.277 16.1628 14.8919 16.3939 14.4297 16.3939H8.9223C8.49865 16.3939 7.95946 16.1628 7.45878 15.8932C6.99662 15.6622 6.53446 15.4311 6.03378 15.3155V9.1919C7.45878 8.11352 9.30743 6.45743 10.0392 4.45473C10.0392 4.41621 10.0392 4.37771 10.0777 4.37771L10.6169 1.48919C10.8095 1.41217 10.9635 1.41216 11.2716 1.41216C11.3872 1.41216 11.8493 2.10541 11.8493 4.30068C11.8493 5.14797 11.6953 6.11081 11.3872 7.18919H11.2331C10.925 7.18919 10.6554 7.45878 10.6554 7.76689C10.6554 8.075 10.925 8.34459 11.2331 8.34459H16.4324C17.0101 8.34459 17.5493 8.61419 17.5493 9.07635Z" fill="#0061FF" stroke="#0061FF" stroke-width="0.5"/>
<path d="M4.87838 17.5878H1.41216C0.757432 17.5878 0.256757 17.0872 0.256757 16.4324V8.34459C0.256757 7.68986 0.757432 7.18919 1.41216 7.18919H4.87838C5.53311 7.18919 6.03378 7.68986 6.03378 8.34459V16.4324C6.03378 17.0872 5.53311 17.5878 4.87838 17.5878ZM1.41216 8.34459V16.4324H4.87838V8.34459H1.41216Z" fill="#0061FF" stroke="#0061FF" stroke-width="0.5"/>
</svg>
